# xmcd CD database file generated by Grip 2.96
# 
# Track frame offsets:
#       150
#       46588
#       64497
#       84003
#       116825
#       137765
#       155611
#       174372
#       193118
#       213077
#       245518
#       265532
#       286769
#       301337
# 
# Disc length: 4313 seconds
# 
# Revision: 0
# Processed by: cddbd v1.4PL0 Copyright (c) Steve Scherf et al.
# Submitted via: Grip 2.96
# 
DISCID=b910d70e
DTITLE=Albert King - The King of Blues
DYEAR=1900
DGENRE=
TTITLE0=Blues Power
TTITLE1=She Caught The Caty And Left Me A Mule To Ride
TTITLE2=Angel Of Mercy
TTITLE3=I'll Play The Blues For You (parts 1 and 2)
TTITLE4=Answer To The Laundromat Blues
TTITLE5=Breaking Up Somebody's Home
TTITLE6=I Wanna Get Funky
TTITLE7=Cold Women With Warm Hearts
TTITLE8=Cadillac Assembly Line
TTITLE9=Ain't Nothing You Can Do
TTITLE10=Call My Job
TTITLE11=Good Time Charlie
TTITLE12=We All Wanna Boogie
TTITLE13=The Feeling
EXTD=
EXTT0=
EXTT1=
EXTT2=
EXTT3=
EXTT4=
EXTT5=
EXTT6=
EXTT7=
EXTT8=
EXTT9=
EXTT10=
EXTT11=
EXTT12=
EXTT13=
PLAYORDER=
